<svg width="1410" height="1569" viewBox="0 0 1410 1569" fill="none" xmlns="http://www.w3.org/2000/svg">
<path d="M246.5 1149.5C246.5 1314 24.0695 1320 5.97527 1191.5C-23.5247 982 61.3088 769.667 148.475 692C328.075 522.8 465.809 680.5 516.475 778C538.975 849 567.394 927.999 632.476 909C712.975 885.5 674.309 737.666 632.476 661.999C500.475 360.5 758.975 232.499 922.476 262.499C1474.98 373.5 1508.47 1230.5 1264.48 1474.5C986.475 1752.5 733 1342.97 922.476 1153.5C1080.98 1009.5 1104.64 870.332 1094.98 774.499C1010.48 342 742.975 512.5 780.976 606.999C1027.48 1274 481.476 1284 389.476 1020C350.356 874 204.648 946 224.476 1020C232.782 1051 244 1116 246.5 1149.5Z" fill="#7269FF"/>
<circle cx="250.476" cy="414" r="128" fill="#7269FF"/>
<circle cx="604.476" cy="128" r="128" fill="#7269FF"/>
</svg>
